# xmcd CD database file
#
# Track frame offsets:
#	150
#	27473
#	51763
#	68703
#	87897
#	108672
#	129416
#	154608
#	171953
#	195372
#	213946
#	230716
#	246608
#
# Disc length: 3666 seconds
#
# Revision: 1
# Processed by: cddbd v1.5.2PL0 Copyright (c) Steve Scherf et al.
# Submitted via: CDex 1.70beta2
#
DISCID=b40e500d
DTITLE=Jackie Greene - Rusty Nails
DYEAR=1900
DGENRE=Blues
TTITLE0=Pale Blue Monday
TTITLE1=Santa Fe Girl 
TTITLE2=The Lord Mistreats Me 
TTITLE3=	Georgia 
TTITLE4=Passin' On the Blues 
TTITLE5=	Blue Sky
TTITLE6=Gettin' By
TTITLE7=	The Rusty Nail
TTITLE8=	Waiting for the Whistle
TTITLE9=Falling Back
TTITLE10=	Never Satisfied
TTITLE11=What I Know
TTITLE12=Freeport Boulevard
EXTD=
EXTT0=
EXTT1=
EXTT2=
EXTT3=
EXTT4=
EXTT5=
EXTT6=
EXTT7=
EXTT8=
EXTT9=
EXTT10=
EXTT11=
EXTT12=
PLAYORDER=
